<svg width="32" height="32" viewBox="0 0 32 32" fill="none" xmlns="http://www.w3.org/2000/svg">
<path d="M6.94751 16.7887C6.94751 16.7887 9.5 11.5002 11.8733 9.995C14.0799 8.59556 14.9371 8.47178 17.7187 8.44391C19.5598 8.42547 20.7867 9.23509 21.8402 10.6461C22.2908 11.2497 22.0864 12.1556 22.4561 12.6937C23.1301 13.6749 23.4324 13.8151 25.5 14" stroke="white" stroke-linecap="round"/>
<path d="M24.8648 13.9075C25.475 14.2034 26.2946 13.8688 26.5 16C26.7054 18.1312 26.5 19 25.034 20.0944C23.568 21.1889 23.4257 20.8885 22.6784 21.0784C21.9196 21.2713 21.0622 21.3159 20.2893 21.4801C19.6895 21.6076 19.0649 21.6368 18.4556 21.694C18.4054 21.6976 18.3701 21.6976 18.3339 21.6976" stroke="white" stroke-linecap="round"/>
<path d="M20 13C20 13.0194 20 13.0388 20 13.1459C20 13.2529 20 13.4471 20 13.6053C20 13.7635 20 13.88 20 14" stroke="white" stroke-linecap="round"/>
<path d="M11.5468 14.5904C11.5328 14.6186 11.4199 14.8303 11.2246 15.2137C11.0477 15.5608 10.8159 16.0317 10.535 16.5186C10.2906 16.9422 10.224 17.193 10.1775 17.6903C10.1581 17.8974 10.1382 18.2657 10.1312 18.7454C10.1233 19.2787 10.0814 19.5629 10.0601 20.0671C10.0406 20.5287 10.0528 21.4095 10.0564 21.8806C10.0611 22.509 10.2509 22.8625 10.4009 23.0595C10.4607 23.1379 10.7126 23.2405 11.0852 23.4109C11.4301 23.5686 11.7447 23.6396 11.9721 23.6786C12.3325 23.7405 12.9738 23.6125 13.4449 23.473C13.7402 23.3856 14.1899 23.2351 14.4703 23.1456C14.7759 23.048 15.1243 22.5667 15.2778 22.4202C15.4197 22.2846 15.6575 22.069 15.8784 21.774C16.3968 21.0818 16.4053 20.8093 16.5619 20.3796C16.6556 20.1223 16.7323 19.6871 16.8041 19.404C16.8341 19.2857 16.8753 19.1303 16.8966 18.5654C16.9145 18.0924 16.9039 17.2399 16.8898 16.7516C16.8728 16.1634 16.8115 15.7743 16.7973 15.3122C16.7866 14.9658 16.6977 14.7125 16.6869 13.939C16.6691 13.6375 16.655 13.5237 16.6302 13.4421C16.6194 13.4027 16.6123 13.3675 16.6051 13.2458" stroke="white" stroke-linecap="round"/>
<path d="M26 14C26.1745 14.0268 26.3786 14.1012 26.4367 14.1418C26.5013 14.1869 26.5596 14.2296 26.6178 14.2686C26.6788 14.3096 26.7181 14.3817 26.8001 14.4628C26.8634 14.5256 26.8963 14.6014 26.9233 14.6893C26.9531 14.7861 26.9503 14.9189 26.9587 15.0425C26.9658 15.146 26.9784 15.2335 26.9856 15.3619C26.9886 15.4161 26.9927 15.4569 26.9941 15.4906C26.9955 15.5247 27.0012 15.7892 26.9998 16.1745C26.999 16.3803 26.9645 16.4675 26.9419 16.5538C26.9213 16.6321 26.8882 16.7509 26.8683 16.8749C26.8562 16.9504 26.8485 17.0454 26.8259 17.1319C26.8005 17.2296 26.7835 17.3801 26.7764 17.4935C26.7692 17.6086 26.7241 17.7519 26.6987 17.8654C26.6757 17.9678 26.6618 18.0361 26.6323 18.1408C26.5734 18.3498 26.5092 18.4012 26.4725 18.4859C26.4428 18.554 26.3793 18.5907 26.3409 18.6482C26.3338 18.6651 26.3282 18.6852 26.3001 18.7441C26.272 18.8029 26.2216 18.9 26.1612 19" stroke="white" stroke-linecap="round"/>
</svg>
